<?xml version="1.0" encoding="UTF-8"?>
<!DOCTYPE svg PUBLIC "-//W3C//DTD SVG 1.1//EN" "http://www.w3.org/Graphics/SVG/1.1/DTD/svg11.dtd">
<!-- Creator: CorelDRAW -->
<svg xmlns="http://www.w3.org/2000/svg" xml:space="preserve" width="50px" height="50px" version="1.1" style="shape-rendering:geometricPrecision; text-rendering:geometricPrecision; image-rendering:optimizeQuality; fill-rule:evenodd; clip-rule:evenodd"
viewBox="0 0 50 50"
 xmlns:xlink="http://www.w3.org/1999/xlink"
 xmlns:xodm="http://www.corel.com/coreldraw/odm/2003">
 <defs>
  <style type="text/css">
   <![CDATA[
    .str0 {stroke:black;stroke-width:0.02;stroke-miterlimit:22.9256}
    .fil1 {fill:none}
    .fil0 {fill:#673ab7}
   ]]>
  </style>
 </defs>
 <g id="Layer_x0020_1">
  <metadata id="CorelCorpID_0Corel-Layer"/>
  <g id="Logo_x0020_Persegi">
   <path class="fil0" d="M39.926 22.108c0,-0.697 0.021,-5.327 -0.003,-5.583l-5.887 0.006c-0.051,0.196 -0.028,0.924 -0.029,1.176l-0.003 7.372c0.002,1.646 0.032,5.618 -0.116,6.755 -0.155,1.187 -0.627,2.425 -1.237,3.402 -0.347,0.555 -0.839,1.166 -1.294,1.622 -0.104,0.105 -0.185,0.17 -0.298,0.278 -0.166,0.159 -0.8,0.644 -0.982,0.763 -0.068,0.045 -0.104,0.077 -0.176,0.122 -0.057,0.036 -0.114,0.07 -0.173,0.104 -0.134,0.077 -0.236,0.14 -0.365,0.21 -2.442,1.32 -5.393,1.425 -7.914,0.23 -0.585,-0.278 -0.919,-0.499 -1.42,-0.845 -0.398,-0.275 -0.875,-0.716 -1.208,-1.059 -0.669,-0.689 -1.347,-1.651 -1.787,-2.763 -0.51,-1.285 -0.66,-2.308 -0.66,-3.88 0,-0.188 0.025,-0.953 -0.027,-1.058l-2.953 -0.005c-0.792,0 -2.147,-0.018 -2.934,0.009 -0.098,2.751 0.142,5.108 1.25,7.566 0.463,1.029 1.102,2.171 1.827,3.057l1.649 1.805c0.164,0.161 0.323,0.287 0.489,0.44 0.249,0.229 0.51,0.416 0.778,0.614 0.864,0.639 1.643,1.088 2.627,1.55 1.627,0.763 3.96,1.341 6.069,1.341 1.512,0.002 3.564,-0.325 4.951,-0.859 0.952,-0.366 1.688,-0.665 2.556,-1.197 1.081,-0.661 1.49,-0.957 2.438,-1.795 0.724,-0.638 0.98,-0.996 1.583,-1.685l0.786 -1.089c0.495,-0.716 0.942,-1.576 1.307,-2.445 0.363,-0.862 0.688,-1.866 0.869,-2.886 0.292,-1.645 0.277,-2.538 0.279,-4.087l0.008 -7.186z"/>
   <path class="fil0" d="M10.463 4.73c-0.049,0.705 -0.028,2.156 -0.03,2.931 -0.003,0.97 -0.025,1.988 0.007,2.954 0.357,0.044 2.393,0.022 2.917,0.021l8.849 0.006c-0.028,2.396 -0.015,4.798 -0.015,7.195l-0.002 10.789c0,0.6 -0.001,1.2 0.005,1.801 0.009,0.844 0.215,1.407 0.691,2.003 0.132,0.165 0.175,0.209 0.33,0.339 0.384,0.32 0.774,0.554 1.36,0.683 0.569,0.126 1.06,0.046 1.561,-0.126 0.391,-0.135 0.838,-0.427 1.105,-0.696 0.819,-0.83 0.878,-1.565 0.871,-2.705 -0.007,-1.2 0,-2.401 0,-3.602l0.001 -20.686c0.001,-0.293 0.016,-0.615 -0.003,-0.904 -0.196,-0.071 -14.119,-0.033 -15.44,-0.026 -0.4,0.002 -1.931,-0.01 -2.207,0.023z"/>
   <path class="fil0" d="M34.022 4.723c-0.017,0.576 -0.06,5.769 0.003,5.887 0.042,0.043 1.326,0.022 1.448,0.022l2.971 0.005c0.485,0.001 1.002,0.017 1.483,-0.013 0.024,-0.129 -0.006,-2.735 -0.006,-2.945 -0.002,-0.978 0.03,-1.981 0.009,-2.955 -0.223,-0.03 -2.667,-0.015 -2.953,-0.015 -0.968,-0.001 -1.994,-0.028 -2.955,0.014z"/>
   <rect class="fil1 str0" x="3.026" y="2.973" width="44.006" height="44.006"/>
  </g>
 </g>
</svg>
