<svg id="Layer_4" data-name="Layer 4" xmlns="http://www.w3.org/2000/svg" viewBox="0 0 32 32"><defs><style>.cls-1{fill:#01aed6;}.cls-2{fill:#fff;}</style></defs><circle class="cls-1" cx="16" cy="16" r="12.19"/><path class="cls-2" d="M9,12.83c-.09,2-.09,4.08,0,6.18a3.35,3.35,0,0,0,3.23,3.21q3.71.11,7.39,0A3.38,3.38,0,0,0,22.89,19c.05-1.31.05-2.55,0-3.74a2.6,2.6,0,0,0-2.61-2.47h-8c-.57,0-.57-1,0-1h8c0-1.18-.73-2.09-2.38-2.17H12.3A3.38,3.38,0,0,0,9,12.83Z"/><circle class="cls-1" cx="20.22" cy="16.79" r="0.9"/><rect class="cls-1" x="19.82" y="16.14" width="0.79" height="2.7" rx="0.39"/></svg>