<?xml version="1.0" encoding="UTF-8"?>
<!DOCTYPE svg PUBLIC "-//W3C//DTD SVG 1.1//EN" "http://www.w3.org/Graphics/SVG/1.1/DTD/svg11.dtd">
<!-- Creator: CorelDRAW -->
<svg xmlns="http://www.w3.org/2000/svg" xml:space="preserve" width="50px" height="50px" version="1.1" style="shape-rendering:geometricPrecision; text-rendering:geometricPrecision; image-rendering:optimizeQuality; fill-rule:evenodd; clip-rule:evenodd"
viewBox="0 0 50 50"
 xmlns:xlink="http://www.w3.org/1999/xlink"
 xmlns:xodm="http://www.corel.com/coreldraw/odm/2003">
 <defs>
  <style type="text/css">
   <![CDATA[
    .str0 {stroke:black;stroke-width:0.025;stroke-miterlimit:22.9256}
    .fil1 {fill:none}
    .fil0 {fill:#F7CD2E}
   ]]>
  </style>
 </defs>
 <g id="Layer_x0020_1">
  <metadata id="CorelCorpID_0Corel-Layer"/>
  <g id="_2372017299088">
   <path class="fil0" d="M39.303 25.522c0.048,0.386 -0.085,1.425 -0.151,1.832 -0.242,1.498 -0.734,3.112 -1.454,4.416 -0.502,0.91 -0.958,1.662 -1.568,2.375 -0.153,0.179 -0.294,0.389 -0.442,0.536l-0.969 0.985c-0.809,0.78 -1.87,1.508 -2.858,2.064 -1.851,1.042 -3.912,1.594 -6.092,1.75 -0.64,0.046 -1.212,0.035 -1.851,-0.013 -0.618,-0.046 -1.446,-0.199 -1.756,-0.219 -0.093,0.131 -0.297,0.313 -0.422,0.438l-4.747 4.746c-0.291,0.293 -0.565,0.558 -0.854,0.856l-0.856 0.87c0.006,0.007 0.015,0.015 0.019,0.02l0.278 0.152c0.109,0.049 0.212,0.092 0.317,0.136 0.691,0.294 1.251,0.503 1.985,0.738 0.895,0.287 1.896,0.55 2.88,0.718 4.315,0.74 8.438,0.381 12.493,-1.154 1.537,-0.581 2.313,-1.032 3.657,-1.789l1.086 -0.693c1.385,-1.002 2.764,-2.074 3.883,-3.342l1.253 -1.47c0.358,-0.469 0.369,-0.432 0.774,-1.041l0.372 -0.536c1.218,-1.93 2.197,-3.759 2.87,-6.132 0.453,-1.597 1.088,-4.613 0.956,-6.231l0.004 -23.565 -8.771 -0.004c0.049,0.406 0.01,1.072 0.01,1.507 0,3.52 0.045,21.892 -0.046,22.05z"/>
   <path class="fil0" d="M15.766 36.179c-0.099,-0.066 -0.114,-0.099 -0.196,-0.168 -0.091,-0.076 -0.14,-0.097 -0.204,-0.185 -0.381,-0.323 -0.742,-0.64 -1.058,-1.032 -0.104,-0.129 -0.203,-0.223 -0.309,-0.354 -1.308,-1.621 -2.245,-3.126 -2.873,-5.331 -0.929,-3.26 -0.671,-6.346 0.471,-9.34 0.487,-1.28 1.665,-3.262 2.646,-4.231 0.234,-0.232 0.414,-0.467 0.66,-0.7 0.13,-0.122 0.237,-0.203 0.361,-0.337 0.124,-0.133 0.225,-0.185 0.356,-0.307 0.142,-0.133 0.221,-0.206 0.378,-0.321 0.092,-0.068 0.103,-0.062 0.199,-0.149l0.998 -0.712c1.483,-0.922 3.107,-1.639 4.865,-1.974 0.591,-0.112 1.852,-0.338 2.44,-0.274 0.291,-0.112 4.1,-0.036 4.76,-0.035 1.581,0.001 3.163,0.003 4.744,0.001l-0.001 -8.762 -9.502 0.003c-0.927,-0.074 -3.165,0.238 -4.13,0.431 -1.185,0.237 -2.458,0.583 -3.533,1.006 -2.185,0.858 -2.878,1.269 -4.716,2.401 -0.065,0.04 -0.109,0.078 -0.164,0.116 -0.124,0.085 -0.208,0.147 -0.328,0.23 -0.679,0.472 -1.297,0.964 -1.911,1.509 -0.199,0.177 -0.432,0.335 -0.617,0.536l-1.134 1.134c-0.352,0.361 -1.188,1.38 -1.537,1.847 -1.185,1.588 -2.39,3.598 -3.209,5.867 -2.231,6.174 -1.901,12.886 1.136,18.726 0.536,1.029 1.107,1.984 1.73,2.809l0.483 0.667c0.121,0.137 0.145,0.196 0.242,0.317 0.103,0.127 0.162,0.197 0.25,0.308l1.065 1.204c0.346,0.381 0.74,0.778 1.138,1.129 0.191,0.168 1.096,0.97 1.268,1.019 0.261,-0.235 0.521,-0.521 0.778,-0.778l3.908 -3.909c0.178,-0.178 1.465,-1.383 1.527,-1.596 -0.053,-0.057 -0.855,-0.619 -0.981,-0.765z"/>
   <rect class="fil1 str0" x="-0.041" width="50" height="50"/>
  </g>
 </g>
</svg>
